{"title":"Viva Las Vegas (1964)Blu-ray","uid":7404661,"size":8120522376,"categoryP":"video","categoryS":"hd___movies","magnet":"?xt=urn:btih:4e080fae955ff51dd3989b13c45519d5f076f2bf&amp;dn=Viva+Las+Vegas+%281964%29Blu-ray&amp;tr=udp%3A%2F%2Ftracker.openbittorrent.com%3A80&amp;tr=udp%3A%2F%2Fopen.demonii.com%3A1337&amp;tr=udp%3A%2F%2Ftracker.coppersurfer.tk%3A6969&amp;tr=udp%3A%2F%2Fexodus.desync.com%3A6969","seeders":2,"leechers":0,"uploader":"Beebe85","files":-1,"time":1341206479,"description":"Viva Las Vegas (1964) Blu Ray rip 1920x802  \n\n &lt;a href=&quot;\nhttp://www.imdb.com/title/tt0058725/&quot; rel=&quot;nofollow&quot; target=&quot;_NEW&quot;&gt;\nhttp://www.imdb.com/title/tt0058725/&lt;/a&gt;\n\n\nVideo\nID                             : 1\nFormat                         : AVC\nFormat/Info                    : Advanced Video Codec\nFormat profile                 : &lt;a class=&quot;__cf_email__&quot; href=&quot;/cdn-cgi/l/email-protection&quot; data-cfemail=&quot;723a1b151a323e475c43&quot;&gt;[email&amp;#160;protected]&lt;/a&gt;&lt;script cf-hash='f9e31' type=&quot;text/javascript&quot;&gt;\n/* &lt;![CDATA[ */!function(){try{var t=&quot;currentScript&quot;in document?document.currentScript:function(){for(var t=document.getElementsByTagName(&quot;script&quot;),e=t.length;e--;)if(t[e].getAttribute(&quot;cf-hash&quot;))return t[e]}();if(t&amp;&amp;t.previousSibling){var e,r,n,i,c=t.previousSibling,a=c.getAttribute(&quot;data-cfemail&quot;);if(a){for(e=&quot;&quot;,r=parseInt(a.substr(0,2),16),n=2;a.length-n;n+=2)i=parseInt(a.substr(n,2),16)^r,e+=String.fromCharCode(i);e=document.createTextNode(e),c.parentNode.replaceChild(e,c)}}}catch(u){}}();/* ]]&gt; */&lt;/script&gt;\nFormat settings, CABAC         : Yes\nFormat settings, ReFrames      : 2 frames\nCodec ID                       : V_MPEG4/ISO/AVC\nDuration                       : 1h 24mn\nBit rate                       : 11.8 Mbps\nWidth                          : 1 920 pixels\nHeight                         : 802 pixels\nDisplay aspect ratio           : 2.40:1\nFrame rate                     : 23.976 fps\nColor space                    : YUV\nChroma subsampling             : 4:2:0\nBit depth                      : 8 bits\nScan type                      : Progressive\nBits/(Pixel*Frame)             : 0.321\nStream size                    : 7.03 GiB (93%)\nWriting library                : x264 core\nDefault                        : Yes\nForced                         : No\nColor primaries                : BT.709-5, BT.1361, IEC 61966-2-4, SMPTE RP177\nTransfer characteristics       : BT.709-5, BT.1361\nMatrix coefficients            : BT.709-5, BT.1361, IEC 61966-2-4 709, SMPTE RP177\n\nAudio\nID                             : 2\nFormat                         : AC-3\nFormat/Info                    : Audio Coding 3\nMode extension                 : CM (complete main)\nCodec ID                       : A_AC3\nDuration                       : 1h 24mn\nBit rate mode                  : Constant\nBit rate                       : 640 Kbps\nChannel(s)                     : 6 channels\nChannel positions              : Front: L C R, Side: L R, LFE\nSampling rate                  : 48.0 KHz\nBit depth                      : 16 bits\nCompression mode               : Lossy\nStream size                    : 389 MiB (5%)\nLanguage                       : English\nDefault                        : Yes\nForced                         : No","torrent":{"xt":"urn:btih:4e080fae955ff51dd3989b13c45519d5f076f2bf","amp;dn":"Viva+Las+Vegas+%281964%29Blu-ray","amp;tr":["udp%3A%2F%2Ftracker.openbittorrent.com%3A80","udp%3A%2F%2Fopen.demonii.com%3A1337","udp%3A%2F%2Ftracker.coppersurfer.tk%3A6969","udp%3A%2F%2Fexodus.desync.com%3A6969"],"infoHash":"4e080fae955ff51dd3989b13c45519d5f076f2bf","infoHashBuffer":{"type":"Buffer","data":[78,8,15,174,149,95,245,29,211,152,155,19,196,85,25,213,240,118,242,191]},"announce":[],"urlList":[]}}